<?xml version="1.0" encoding="utf-8"?>
<!-- Generator: Adobe Illustrator 16.0.0, SVG Export Plug-In . SVG Version: 6.00 Build 0)  -->
<!DOCTYPE svg PUBLIC "-//W3C//DTD SVG 1.1//EN" "http://www.w3.org/Graphics/SVG/1.1/DTD/svg11.dtd">
<svg version="1.1" id="Layer_1" xmlns="http://www.w3.org/2000/svg" xmlns:xlink="http://www.w3.org/1999/xlink" x="0px" y="0px"
	 width="136.741px" height="263.104px" viewBox="0 0 136.741 263.104" enable-background="new 0 0 136.741 263.104"
	 xml:space="preserve">
<path fill="#F9F4EF" d="M136.476,67.934C136.476,30.414,106.06,0,68.54,0C31.02,0,0.604,30.414,0.604,67.934
	c0,0.544,0.029,1.079,0.04,1.617c-0.011,0.27-0.04,0.538-0.04,0.81v138.297c0,9.381,7.603,16.984,16.984,16.984
	s16.984-7.604,16.984-16.984c0,9.381,7.603,16.984,16.984,16.984c9.379,0,16.984-7.604,16.984-16.984
	c0,9.381,7.603,16.984,16.983,16.984c9.379,0,16.984-7.604,16.984-16.984c0,9.381,7.603,16.984,16.984,16.984
	c9.378,0,16.983-7.604,16.983-16.984V70.36c0-0.272-0.028-0.54-0.042-0.81C136.444,69.013,136.476,68.478,136.476,67.934z"/>
<path fill="#827B77" d="M86.174,101.302c0,7.127-7.987,12.924-17.807,12.924c-9.814,0-17.802-5.796-17.802-12.924h-4.529
	c0,9.622,10.018,17.453,22.331,17.453c12.318,0,22.336-7.831,22.336-17.453H86.174z"/>
<g>
	<path fill="#827B77" d="M49.959,74.374c-2.525,0-4.578,2.048-4.578,4.576c0,2.527,2.052,4.578,4.578,4.578
		c2.53,0,4.578-2.05,4.578-4.578C54.537,76.421,52.489,74.374,49.959,74.374z"/>
	<circle fill="#827B77" cx="86.78" cy="78.95" r="4.577"/>
</g>
<path fill="#D35E42" d="M136.476,72.153h-20c-1.119-11.504-10.837-20.524-22.628-20.524c-11.796,0-21.513,9.021-22.632,20.524
	h-6.259C63.838,60.649,54.121,51.629,42.33,51.629c-11.796,0-21.513,9.021-22.632,20.524H0.604v4.436h19.093
	c1.119,11.504,10.836,20.527,22.632,20.527c11.792,0,21.509-9.023,22.627-20.527h6.259c1.119,11.504,10.836,20.527,22.632,20.527
	c11.791,0,21.509-9.023,22.628-20.527h20V72.153z M42.33,92.587c-10.044,0-18.218-8.171-18.218-18.213
	c0-10.044,8.174-18.216,18.218-18.216c10.04,0,18.213,8.171,18.213,18.216C60.543,84.416,52.37,92.587,42.33,92.587z M93.848,92.587
	c-10.045,0-18.218-8.171-18.218-18.213c0-10.044,8.173-18.216,18.218-18.216c10.04,0,18.214,8.171,18.214,18.216
	C112.062,84.416,103.888,92.587,93.848,92.587z"/>
<polygon fill="#FFFFFF" points="136.476,194.606 0.602,194.606 0.602,122.707 68.372,144.822 136.476,122.707 "/>
<g opacity="0.6">
	<polygon fill="#CCCCCC" points="56.775,159.299 0,123.666 1.203,121.749 56.288,156.32 67.496,142.653 69.247,144.088 	"/>
</g>
<g opacity="0.6">
	<polygon fill="#CCCCCC" points="79.967,159.299 67.496,144.088 69.247,142.653 80.453,156.32 135.538,121.749 136.741,123.666 	"/>
</g>
<g>
	<line fill="#FFBB63" x1="68.54" y1="194.606" x2="68.54" y2="151.96"/>
	<rect x="67.407" y="151.96" fill="#E5E5E5" width="2.265" height="42.646"/>
</g>
<path opacity="0.1" d="M91.362,135.702l-17.247,9.956c-1.018-2.167-3.205-3.678-5.757-3.678c-2.488,0-4.62,1.438-5.67,3.514
	l-16.971-9.797v26.352l17.417-10.056c1.154,1.647,3.059,2.731,5.224,2.731c2.229,0,4.185-1.146,5.323-2.879l17.681,10.208V135.702z"
	/>
<g>
	<circle fill="#FFBB63" cx="74.224" cy="162.606" r="1.981"/>
	<circle fill="#FFBB63" cx="74.224" cy="173.283" r="1.981"/>
	<circle fill="#FFBB63" cx="74.224" cy="183.96" r="1.981"/>
</g>
<g>
	<rect x="0.602" y="193.474" fill="#DDDDDD" width="135.874" height="2.265"/>
</g>
<g>
	<g>
		<path fill="#FFFFFF" d="M99.69,165.45c0,5.812,4.71,10.518,10.518,10.518s10.516-4.706,10.516-10.518l0.117-10.871H99.69V165.45z"
			/>
		<path fill="#DDDDDD" d="M110.208,177.101c-6.424,0-11.649-5.227-11.649-11.65v-12.004h23.428l-0.131,12.016
			C121.855,171.874,116.63,177.101,110.208,177.101z M100.822,155.711v9.739c0,5.175,4.211,9.386,9.386,9.386
			s9.383-4.211,9.383-9.386l0.104-9.739H100.822z"/>
	</g>
</g>
<rect x="0.604" y="195.597" opacity="0.03" width="135.872" height="4.673"/>
<g>
	<path fill="#ED6B48" d="M91.357,133.225l-17.245,9.956c-1.017-2.167-3.202-3.678-5.756-3.678c-2.488,0-4.62,1.438-5.668,3.514
		l-16.971-9.797v13.178h45.64V133.225z"/>
	<path fill="#DD6043" d="M45.718,146.398v13.174l17.417-10.056c1.15,1.647,3.057,2.731,5.222,2.731c2.227,0,4.184-1.146,5.323-2.88
		l17.678,10.208v-13.178H45.718z"/>
</g>
<circle fill="#ED6B48" cx="68.371" cy="145.883" r="6.383"/>
<ellipse opacity="0.1" cx="68.291" cy="254.641" rx="68.455" ry="8.099"/>
</svg>
